<svg width="28" height="28" viewBox="0 0 28 28" fill="none" xmlns="http://www.w3.org/2000/svg">
<path d="M11.7704 10.5516C11.5159 9.12712 11.704 7.65881 12.3094 6.34449C8.78898 7.12629 6.1573 10.2669 6.1573 14.0225C6.1573 18.3664 9.67853 21.8876 14.0225 21.8876C17.7781 21.8876 20.9186 19.256 21.7004 15.7355C20.3861 16.341 18.9178 16.5291 17.4933 16.2745C16.0688 16.0199 14.7566 15.3348 13.7333 14.3116C12.7101 13.2884 12.025 11.9761 11.7704 10.5516Z" fill="white"/>
<path d="M19.5281 6.55056L18.8706 6.38618C18.594 6.31702 18.3415 6.17401 18.1399 5.97245C17.9383 5.77088 17.7953 5.51833 17.7262 5.2418L17.5618 4.58427H16.7753L16.6101 5.2418C16.541 5.51824 16.3981 5.77072 16.1967 5.97228C15.9953 6.17383 15.7429 6.31689 15.4665 6.38618L14.809 6.55056V7.33708L15.4665 7.50146C15.743 7.57062 15.9956 7.71362 16.1972 7.91519C16.3987 8.11675 16.5417 8.3693 16.6109 8.64584L16.7753 9.30337H17.5618L17.7262 8.64584C17.7953 8.3693 17.9383 8.11675 18.1399 7.91519C18.3415 7.71362 18.594 7.57062 18.8706 7.50146L19.5281 7.33708V6.55056Z" fill="white"/>
<path d="M23.4607 10.4831L22.8031 10.3188C22.5266 10.2496 22.2741 10.1066 22.0725 9.90503C21.8709 9.70347 21.7279 9.45092 21.6588 9.17438L21.4944 8.51685H20.7079L20.5435 9.17438C20.4743 9.45092 20.3313 9.70347 20.1297 9.90503C19.9282 10.1066 19.6756 10.2496 19.3991 10.3188L18.7416 10.4831V11.2697L19.3991 11.434C19.6756 11.5032 19.9282 11.6462 20.1297 11.8478C20.3313 12.0493 20.4743 12.3019 20.5435 12.5784L20.7079 13.236H21.4944L21.6588 12.5784C21.7279 12.3019 21.8709 12.0493 22.0725 11.8478C22.2741 11.6462 22.5266 11.5032 22.8031 11.434L23.4607 11.2697V10.4831Z" fill="white"/>
<path fill-rule="evenodd" clip-rule="evenodd" d="M28 14C28 21.732 21.732 28 14 28C6.26801 28 0 21.732 0 14C0 6.26801 6.26801 0 14 0C21.732 0 28 6.26801 28 14ZM26.3712 14C26.3712 20.8324 20.8324 26.3712 14 26.3712C7.16758 26.3712 1.62881 20.8324 1.62881 14C1.62881 7.16758 7.16758 1.62881 14 1.62881C20.8324 1.62881 26.3712 7.16758 26.3712 14Z" fill="white"/>
</svg>
