<svg width="156" height="17" viewBox="0 0 156 17" fill="none" xmlns="http://www.w3.org/2000/svg">
<path d="M0.334015 17V3.2C0.334015 2.694 0.456682 2.234 0.702015 1.82C0.947348 1.39067 1.27701 1.05334 1.69102 0.808002C2.12035 0.562669 2.58802 0.440002 3.09401 0.440002H14.134C14.64 0.440002 15.1 0.562669 15.514 0.808002C15.9433 1.05334 16.2807 1.39067 16.526 1.82C16.7714 2.234 16.894 2.694 16.894 3.2V17H15.031V10.951H2.19702V17H0.334015ZM2.19702 9.088H15.031V3.2C15.031 2.95467 14.939 2.74767 14.755 2.579C14.5863 2.395 14.3793 2.303 14.134 2.303H3.09401C2.84868 2.303 2.63401 2.395 2.45002 2.579C2.28135 2.74767 2.19702 2.95467 2.19702 3.2V9.088Z" fill="#EEEEEE"/>
<path d="M26.0466 17V2.303H18.6866V0.440002H35.2466V2.303H27.9096V17H26.0466Z" fill="#EEEEEE"/>
<path d="M37.0127 17V0.440002H52.1237V2.303H38.8757V7.777H49.5247V9.663H38.8757V15.137H52.1237V17H37.0127Z" fill="#EEEEEE"/>
<path d="M54.6221 17V0.440002H69.7331V2.303H56.4851V7.777H67.1341V9.663H56.4851V17H54.6221Z" fill="#EEEEEE"/>
<path d="M77.4638 17V0.440002H80.0168L92.1608 14.884V0.440002H94.0238V17H91.4708L79.3268 2.556V17H77.4638Z" fill="#EEEEEE"/>
<path d="M99.3145 17C98.8085 17 98.3408 16.8773 97.9115 16.632C97.4975 16.3867 97.1678 16.057 96.9225 15.643C96.6772 15.2137 96.5545 14.746 96.5545 14.24V3.2C96.5545 2.694 96.6772 2.234 96.9225 1.82C97.1678 1.39067 97.4975 1.05334 97.9115 0.808002C98.3408 0.562669 98.8085 0.440002 99.3145 0.440002H110.355C110.861 0.440002 111.321 0.562669 111.735 0.808002C112.164 1.05334 112.501 1.39067 112.747 1.82C112.992 2.234 113.115 2.694 113.115 3.2V14.24C113.115 14.746 112.992 15.2137 112.747 15.643C112.501 16.057 112.164 16.3867 111.735 16.632C111.321 16.8773 110.861 17 110.355 17H99.3145ZM99.3145 15.137H110.355C110.6 15.137 110.807 15.0527 110.976 14.884C111.16 14.7 111.252 14.4853 111.252 14.24V3.2C111.252 2.95467 111.16 2.74767 110.976 2.579C110.807 2.395 110.6 2.303 110.355 2.303H99.3145C99.0692 2.303 98.8545 2.395 98.6705 2.579C98.5019 2.74767 98.4175 2.95467 98.4175 3.2V14.24C98.4175 14.4853 98.5019 14.7 98.6705 14.884C98.8545 15.0527 99.0692 15.137 99.3145 15.137Z" fill="#EEEEEE"/>
<path d="M118.361 17C117.855 17 117.388 16.8773 116.958 16.632C116.544 16.3867 116.215 16.057 115.969 15.643C115.724 15.2137 115.601 14.746 115.601 14.24V0.440002H117.464V14.24C117.464 14.4853 117.549 14.7 117.717 14.884C117.901 15.0527 118.116 15.137 118.361 15.137H129.401C129.647 15.137 129.854 15.0527 130.022 14.884C130.206 14.7 130.298 14.4853 130.298 14.24V0.440002H132.161V14.24C132.161 14.746 132.039 15.2137 131.793 15.643C131.548 16.057 131.211 16.3867 130.781 16.632C130.367 16.8773 129.907 17 129.401 17H118.361Z" fill="#EEEEEE"/>
<path d="M148.678 17L143.273 10.56H145.711L151.139 16.977V17H148.678ZM134.694 17V0.463002H148.494C149 0.463002 149.46 0.593336 149.874 0.854003C150.304 1.09934 150.641 1.429 150.886 1.843C151.132 2.257 151.254 2.717 151.254 3.223V8.076C151.254 8.582 151.132 9.042 150.886 9.456C150.641 9.87 150.304 10.2073 149.874 10.468C149.46 10.7133 149 10.836 148.494 10.836H136.557V17H134.694ZM137.454 8.95H148.494C148.74 8.95 148.947 8.86567 149.115 8.697C149.299 8.52834 149.391 8.32134 149.391 8.076V3.223C149.391 2.97767 149.299 2.77067 149.115 2.602C148.947 2.418 148.74 2.326 148.494 2.326H137.454C137.209 2.326 136.994 2.418 136.81 2.602C136.642 2.77067 136.557 2.97767 136.557 3.223V8.076C136.557 8.32134 136.642 8.52834 136.81 8.697C136.994 8.86567 137.209 8.95 137.454 8.95Z" fill="#EEEEEE"/>
<path d="M153.904 17V0.440002H155.79V17H153.904Z" fill="#EEEEEE"/>
</svg>
